<svg width="18" height="18" viewBox="0 0 18 18" fill="none" xmlns="http://www.w3.org/2000/svg">
<g clip-path="url(#clip0_24_401)">
<path d="M12.6769 4.78813L4.87999 5.33945C4.82033 5.34387 4.76398 5.36928 4.72089 5.41237L3.7431 6.39017C3.66134 6.47192 3.72542 6.61114 3.84032 6.6023L11.0683 6.09185L4.60267 12.5575C4.55406 12.6061 4.55406 12.6856 4.60267 12.7342L5.26559 13.3972C5.3142 13.4458 5.39375 13.4458 5.44236 13.3972L11.9069 6.93265L11.3964 14.1606C11.3887 14.2766 11.5268 14.3396 11.6086 14.2578L12.6195 13.2469C12.6405 13.2259 12.6537 13.1972 12.6549 13.1673L13.2117 5.32288C13.2167 5.25137 13.2063 5.17962 13.1812 5.11248C13.1561 5.04534 13.1168 4.98437 13.0661 4.93368C13.0155 4.88299 12.9545 4.84377 12.8873 4.81866C12.8202 4.79355 12.7485 4.78314 12.6769 4.78813V4.78813Z" fill="#FAFAFA"/>
</g>
<defs>
<clipPath id="clip0_24_401">
<rect width="12" height="12" fill="white" transform="translate(0.514709 9) rotate(-45)"/>
</clipPath>
</defs>
</svg>
