<svg width="24" height="24" viewBox="0 0 24 24" fill="none" xmlns="http://www.w3.org/2000/svg">
<path d="M4.99988 21.87C4.25988 21.87 3.52988 21.59 2.96988 21.03C2.42988 20.49 2.12988 19.77 2.12988 19C2.12988 18.23 2.42988 17.51 2.96988 16.97L15.9699 3.97C17.0899 2.85 18.9099 2.85 20.0299 3.97C20.5699 4.51 20.8699 5.23 20.8699 6C20.8699 6.77 20.5699 7.49 20.0299 8.03L7.02988 21.03C6.46988 21.59 5.73988 21.87 4.99988 21.87ZM17.9999 4.63001C17.6499 4.63001 17.2999 4.76001 17.0299 5.03001L4.02988 18.03C3.76988 18.29 3.62988 18.63 3.62988 19C3.62988 19.37 3.76988 19.71 4.02988 19.97C4.55988 20.5 5.43988 20.5 5.96988 19.97L18.9699 6.97C19.2299 6.71 19.3699 6.37 19.3699 6C19.3699 5.63 19.2299 5.29001 18.9699 5.03001C18.6999 4.76001 18.3499 4.63001 17.9999 4.63001Z" fill="#FFFFFF"/>
<path d="M18.0102 9.73999C17.8202 9.73999 17.6302 9.66999 17.4802 9.51999L14.4802 6.51999C14.1902 6.22999 14.1902 5.74999 14.4802 5.45999C14.7702 5.16999 15.2502 5.16999 15.5402 5.45999L18.5402 8.45999C18.8302 8.74999 18.8302 9.22999 18.5402 9.51999C18.3902 9.66999 18.2002 9.73999 18.0102 9.73999Z" fill="#FFFFFF"/>
<path d="M10.0001 5.50001C9.95005 5.50001 9.91005 5.49001 9.86005 5.48001L8.50005 5.08001L7.14005 5.48001C6.96005 5.53001 6.77005 5.48001 6.65005 5.35001C6.52005 5.22001 6.47005 5.04001 6.52005 4.86001L6.92005 3.50001L6.52005 2.14001C6.47005 1.96001 6.52005 1.77001 6.65005 1.65001C6.78005 1.52001 6.97005 1.47001 7.14005 1.52001L8.50005 1.92001L9.86005 1.52001C10.0401 1.47001 10.2201 1.52001 10.3501 1.65001C10.4801 1.78001 10.5301 1.97001 10.4801 2.14001L10.0801 3.50001L10.4801 4.86001C10.5301 5.04001 10.4801 5.23001 10.3501 5.35001C10.2601 5.45001 10.1301 5.50001 10.0001 5.50001ZM8.50005 4.06001C8.55005 4.06001 8.59005 4.07001 8.64005 4.08001L9.26005 4.26001L9.08005 3.64001C9.05005 3.55001 9.05005 3.45001 9.08005 3.36001L9.26005 2.74001L8.64005 2.92001C8.55005 2.95001 8.45005 2.95001 8.36005 2.92001L7.74005 2.74001L7.92005 3.36001C7.95005 3.45001 7.95005 3.55001 7.92005 3.64001L7.74005 4.26001L8.36005 4.08001C8.41005 4.07001 8.45005 4.06001 8.50005 4.06001Z" fill="#FFFFFF"/>
<path d="M6.00005 11.5C5.95005 11.5 5.91005 11.49 5.86005 11.48L4.50005 11.08L3.14005 11.48C2.96005 11.53 2.78005 11.48 2.65005 11.35C2.52005 11.22 2.47005 11.03 2.52005 10.86L2.92005 9.50001L2.52005 8.14001C2.47005 7.96001 2.52005 7.77001 2.65005 7.65001C2.78005 7.53001 2.97005 7.47001 3.14005 7.52001L4.50005 7.92001L5.86005 7.52001C6.03005 7.47001 6.22005 7.52001 6.35005 7.65001C6.48005 7.78001 6.53005 7.97001 6.48005 8.14001L6.08005 9.50001L6.48005 10.86C6.53005 11.04 6.48005 11.23 6.35005 11.35C6.26005 11.45 6.13005 11.5 6.00005 11.5ZM4.50005 10.06C4.55005 10.06 4.59005 10.07 4.64005 10.08L5.26005 10.26L5.08005 9.64001C5.05005 9.55001 5.05005 9.45001 5.08005 9.36001L5.26005 8.74001L4.64005 8.92001C4.55005 8.95001 4.45005 8.95001 4.36005 8.92001L3.74005 8.74001L3.92005 9.36001C3.95005 9.45001 3.95005 9.55001 3.92005 9.64001L3.74005 10.26L4.36005 10.08C4.41005 10.07 4.45005 10.06 4.50005 10.06Z" fill="#FFFFFF"/>
<path d="M21.0001 16.5C20.9501 16.5 20.9101 16.49 20.8601 16.48L19.5001 16.08L18.1401 16.48C17.9601 16.53 17.7801 16.48 17.6501 16.35C17.5201 16.22 17.4701 16.03 17.5201 15.86L17.9201 14.5L17.5201 13.14C17.4701 12.96 17.5201 12.77 17.6501 12.65C17.7801 12.53 17.9701 12.47 18.1401 12.52L19.5001 12.92L20.8601 12.52C21.0301 12.47 21.2201 12.52 21.3501 12.65C21.4801 12.78 21.5301 12.97 21.4801 13.14L21.0801 14.5L21.4801 15.86C21.5301 16.04 21.4801 16.23 21.3501 16.35C21.2601 16.45 21.1301 16.5 21.0001 16.5ZM19.5001 15.06C19.5501 15.06 19.5901 15.07 19.6401 15.08L20.2601 15.26L20.0801 14.64C20.0501 14.55 20.0501 14.45 20.0801 14.36L20.2601 13.74L19.6401 13.92C19.5501 13.95 19.4501 13.95 19.3601 13.92L18.7401 13.74L18.9201 14.36C18.9501 14.45 18.9501 14.55 18.9201 14.64L18.7401 15.26L19.3601 15.08C19.4101 15.07 19.4501 15.06 19.5001 15.06Z" fill="#FFFFFF"/>
</svg>
