<svg width="21" height="20" viewBox="0 0 21 20" fill="none" xmlns="http://www.w3.org/2000/svg">
<path d="M18.6091 16.9257L15.5174 13.8591C16.7175 12.3627 17.2987 10.4635 17.1414 8.55182C16.9842 6.64016 16.1005 4.86139 14.672 3.58128C13.2436 2.30116 11.3789 1.617 9.46152 1.66947C7.54411 1.72193 5.71968 2.50704 4.36337 3.86336C3.00705 5.21968 2.22194 7.04411 2.16947 8.96151C2.11701 10.8789 2.80117 12.7435 4.08128 14.172C5.3614 15.6005 7.14017 16.4842 9.05183 16.6414C10.9635 16.7987 12.8628 16.2175 14.3591 15.0174L17.4257 18.0841C17.5032 18.1622 17.5954 18.2242 17.6969 18.2665C17.7985 18.3088 17.9074 18.3306 18.0174 18.3306C18.1274 18.3306 18.2363 18.3088 18.3379 18.2665C18.4394 18.2242 18.5316 18.1622 18.6091 18.0841C18.7593 17.9287 18.8432 17.721 18.8432 17.5049C18.8432 17.2888 18.7593 17.0811 18.6091 16.9257ZM9.68408 15.0174C8.53036 15.0174 7.40254 14.6753 6.44325 14.0343C5.48397 13.3933 4.73629 12.4823 4.29478 11.4164C3.85327 10.3505 3.73775 9.1776 3.96283 8.04605C4.18791 6.91449 4.74349 5.87509 5.55929 5.05928C6.3751 4.24348 7.4145 3.68791 8.54605 3.46283C9.67761 3.23775 10.8505 3.35327 11.9164 3.79478C12.9823 4.23629 13.8933 4.98396 14.5343 5.94325C15.1753 6.90253 15.5174 8.03035 15.5174 9.18407C15.5174 10.7312 14.9028 12.2149 13.8089 13.3089C12.7149 14.4028 11.2312 15.0174 9.68408 15.0174Z" fill="#939393"/>
</svg>